<?xml version="1.0" encoding="UTF-8"?>
<svg id="Vrstva_1" xmlns="http://www.w3.org/2000/svg" version="1.1" viewBox="0 0 100 100">
  <!-- Generator: Adobe Illustrator 30.3.0, SVG Export Plug-In . SVG Version: 2.1.3 Build 182)  -->
  <path d="M50,24.3c7.3.1,13.3,2.7,18.1,7.6,4.9,4.8,7.4,10.8,7.6,18.1-.1,7.3-2.7,13.3-7.6,18.1-4.8,4.9-10.8,7.4-18.1,7.6-7.3-.1-13.3-2.7-18.1-7.6-4.9-4.8-7.4-10.8-7.6-18.1.1-7.3,2.7-13.3,7.6-18.1,4.8-4.9,10.8-7.4,18.1-7.6ZM50,66.7c4.8-.1,8.7-1.8,11.8-4.9,3.1-3.1,4.8-7.1,4.9-11.8-.2-4.8-1.8-8.7-4.9-11.8-3.1-3.1-7.1-4.8-11.8-4.9-4.8.2-8.7,1.8-11.8,4.9-3.1,3.1-4.8,7.1-4.9,11.8.1,4.8,1.8,8.7,4.9,11.8,3.1,3.1,7.1,4.8,11.8,4.9ZM82.8,23.2c-.1-1.6-.7-3-1.8-4.2-1.2-1-2.6-1.6-4.2-1.6s-3.2.5-4.2,1.6-1.8,2.6-1.8,4.2c.3,3.7,2.3,5.7,6,6,3.6-.3,5.6-2.3,6-6ZM91,9v82H9V9h82M100,0H0v100h100V0h0Z"/>
</svg>