<?xml version="1.0" encoding="UTF-8"?>
<svg id="Izolovaný_režim" xmlns="http://www.w3.org/2000/svg" version="1.1" viewBox="0 0 630 60">
  <!-- Generator: Adobe Illustrator 30.3.0, SVG Export Plug-In . SVG Version: 2.1.3 Build 182)  -->
  <defs>
    <style>
      .st0 {
        stroke: #000;
        stroke-miterlimit: 10;
        stroke-width: .3px;
      }
    </style>
  </defs>
  <path class="st0" d="M334,13.6v43.8h-2.4V13.6s2.4,0,2.4,0ZM337.1,35.5l22.7,21.9h-3.2l-22.7-21.9,22.7-21.9h3.2s-22.7,21.9-22.7,21.9Z"/>
  <path class="st0" d="M407.8,35.5c0,6.4-2.3,11.8-6.8,16.3s-9.9,6.8-16.3,6.8-11.8-2.3-16.3-6.8-6.8-9.9-6.8-16.3,2.3-11.8,6.8-16.3,9.9-6.8,16.3-6.8,11.8,2.3,16.3,6.8,6.8,9.9,6.8,16.3ZM405.4,35.5c0-5.8-2-10.7-6.1-14.8-4-4.1-8.9-6.2-14.7-6.2s-10.6,2-14.7,6.2c-4,4.1-6.1,9.1-6.1,14.8s2,10.7,6.1,14.9c4,4.1,8.9,6.1,14.7,6.1s10.6-2,14.7-6.1c4-4.1,6.1-9.1,6.1-14.9Z"/>
  <path class="st0" d="M447.2,13.6v43.8h-2.3V15.6h-27.2v41.8h-2.3V13.6s31.8,0,31.8,0Z"/>
  <path class="st0" d="M499.2,44.4c-1.8,4.3-4.6,7.7-8.5,10.3-3.9,2.6-8.1,3.9-12.8,3.9s-11.8-2.3-16.3-6.8-6.8-9.9-6.8-16.3,2.3-11.8,6.8-16.3,9.9-6.8,16.3-6.8,9,1.3,12.8,4,6.7,6,8.5,10.3l-2.2.8c-1.6-3.9-4.1-7-7.5-9.4s-7.4-3.6-11.6-3.6-10.6,2-14.7,6.2c-4,4.1-6.1,9.1-6.1,14.8s2,10.7,6.1,14.9c4,4.1,8.9,6.1,14.7,6.1s8.2-1.2,11.6-3.6c3.4-2.4,6-5.5,7.5-9.5l2.2.8v.2Z"/>
  <path class="st0" d="M530.4,55.4v2h-23.1V13.6h23.1v2h-20.7v18.9h19v2h-19v18.8h20.7Z"/>
  <path class="st0" d="M563.9,34.1v2.5h-21.8v20.8h-2.3V13.6h3.4l20.7,20.4h0ZM542.1,34.5h19.3l-19.3-18.9v18.9Z"/>
  <path class="st0" d="M592.7,13.6v2h-14.1v41.8h-2.3V15.6h-14.1v-2s30.5,0,30.5,0Z"/>
  <path class="st0" d="M623.5,13.6h2.9l-17.2,22.3v21.5h-2.3v-21.5l-17.2-22.3h2.9l15.4,20,15.4-20h.1Z"/>
  <g>
    <path class="st0" d="M115.7,55.4v2h-24.2V13.6h2.3v41.8s21.9,0,21.9,0Z"/>
    <path class="st0" d="M144.3,13.6v2h-14.1v41.8h-2.3V15.7h-14.1v-2h30.5Z"/>
    <path class="st0" d="M184.8,13.6v43.8h-31.8V13.6h2.3v41.8h27.2V13.6h2.3ZM177,1.3v2.3l-14.9,5.3v-2.4s14.9-5.2,14.9-5.2Z"/>
    <path class="st0" d="M201.3,35.5l22.7,21.9h-3.2l-22.7-21.9v21.9h-2.3V13.6h25.6v2.5l-20.1,19.4ZM198.2,35.5l20.6-19.9h-20.6v19.9Z"/>
    <path class="st0" d="M263.1,13.6v43.8h-2.3V15.7h-27.2v41.8h-2.3V13.6h31.8Z"/>
    <path class="st0" d="M296.4,55.4v2h-23.1V13.6h23.1v2h-20.7v18.9h19v2h-19v18.8h20.7Z"/>
    <path class="st0" d="M38.7,14.1h-2.3v43.3h2.3V14.1ZM10.8,57.4h3.1l22.5-21.7L13.9,14.1h-3.1l22.5,21.7-22.5,21.7h0Z"/>
    <path class="st0" d="M80.4,13.6v43.8h-31.8V13.6h2.3v41.8h27.2V13.6s2.3,0,2.3,0Z"/>
    <polygon class="st0" points="27.8 35.6 5.5 14.1 2.4 14.1 24.7 35.6 2.4 57.1 5.5 57.1 27.8 35.6 27.8 35.6"/>
  </g>
</svg>