<?xml version="1.0" encoding="UTF-8"?>
<svg id="Vrstva_1" xmlns="http://www.w3.org/2000/svg" version="1.1" viewBox="0 0 100 77.2">
  <!-- Generator: Adobe Illustrator 30.3.0, SVG Export Plug-In . SVG Version: 2.1.3 Build 182)  -->
  <defs>
    <style>
      .st0 {
        fill: #000001;
      }
    </style>
  </defs>
  <path class="st0" d="M37.4,65.3l-2.8,2.8c-3.4,3.4-7.9,5.2-12.7,5.2s-9.3-1.9-12.7-5.2c-3.4-3.4-5.2-7.9-5.2-12.7s1.9-9.3,5.2-12.7l22.5-22.4c7-7,18.4-7,25.4,0,7,7,7,18.4,0,25.4l-6.6,6.6c-.4.4-.6.8-.6,1.3s.2,1,.6,1.4c.7.7,2,.7,2.7,0l6.6-6.6c8.5-8.5,8.5-22.3,0-30.8-8.5-8.5-22.3-8.5-30.8,0L6.5,40C2.4,44.2.2,49.6.2,55.4s2.3,11.3,6.4,15.4c4.2,4.2,9.8,6.4,15.4,6.4s11.1-2.1,15.4-6.4l2.8-2.8c.7-.7.7-2,0-2.7s-2-.7-2.7,0Z"/>
  <path class="st0" d="M99.8,21.8c0-5.8-2.3-11.3-6.4-15.4s-9.6-6.4-15.4-6.4-11.3,2.3-15.4,6.4l-2.8,2.8c-.7.7-.7,2,0,2.7.7.7,2,.7,2.7,0l2.8-2.8c3.4-3.4,7.9-5.2,12.7-5.2s9.3,1.9,12.7,5.2c7,7,7,18.4,0,25.4l-22.5,22.4c-3.4,3.4-7.9,5.2-12.7,5.2s-9.3-1.9-12.7-5.2c-3.4-3.4-5.2-7.9-5.2-12.7s1.9-9.3,5.2-12.7l6.5-6.6c.4-.4.6-.8.6-1.3s-.2-1-.6-1.3c-.7-.7-2-.7-2.7,0l-6.5,6.5c-8.5,8.5-8.5,22.3,0,30.8,4.2,4.2,9.8,6.4,15.4,6.4s11.1-2.1,15.4-6.4h0s22.5-22.4,22.5-22.4c4.1-4.1,6.4-9.6,6.4-15.4Z"/>
</svg>