<?xml version="1.0" encoding="UTF-8"?>
<svg id="Vrstva_1" xmlns="http://www.w3.org/2000/svg" version="1.1" viewBox="0 0 100 100">
  <!-- Generator: Adobe Illustrator 30.3.0, SVG Export Plug-In . SVG Version: 2.1.3 Build 182)  -->
  <path d="M26.9,30.4c-.5,8.4,1.8,16.3,6.9,23.6,6.5,8.6,14.6,13.8,24.5,15.4s19.3-.5,28.1-6.4c2.7-1.9,5.1-4.1,7.2-6.6-1,5.7-2.9,11-6,16.1-3,5.1-7,9.4-12.1,12.9-6.8,4.7-14.1,7.3-21.7,7.9-7.7.8-15-.5-22-3.7-7-3.1-13-7.9-17.9-14.6-4.7-6.8-7.3-14.1-7.9-21.7-.8-7.7.5-15,3.7-22,3.1-7,7.9-13,14.6-17.9,3.5-2.5,7.3-4.5,11.3-5.9-5.6,6.7-8.5,14.3-8.8,22.7h0Z"/>
</svg>