<?xml version="1.0" encoding="UTF-8"?>
<svg id="Vrstva_1" data-name="Vrstva 1" xmlns="http://www.w3.org/2000/svg" viewBox="0 0 100 100">
  <path d="M49.062,29.835c-3.576,4.47-5.409,9.742-5.497,15.819.179,7.33,2.682,13.406,7.508,18.232s10.858,7.33,18.098,7.508c2.233,0,4.424-.269,6.569-.805-2.771,2.771-5.989,4.961-9.652,6.569-3.666,1.608-7.598,2.413-11.798,2.413-5.63-.09-10.681-1.475-15.148-4.156-4.558-2.591-8.134-6.166-10.725-10.725-2.682-4.468-4.068-9.519-4.156-15.149.088-5.63,1.475-10.679,4.156-15.148,2.591-4.558,6.167-8.132,10.725-10.725,4.468-2.681,9.519-4.066,15.148-4.156,2.95,0,5.809.402,8.58,1.207-5.721,1.521-10.322,4.558-13.808,9.116Z"/>
</svg>