<?xml version="1.0" encoding="UTF-8"?>
<svg id="Vrstva_1" data-name="Vrstva 1" xmlns="http://www.w3.org/2000/svg" viewBox="0 0 100 100">
  <path d="M23.142,47.314h2.686v5.372H7.028v-5.372,5.372-5.372h16.115ZM21.464,17.771l2.015,1.847,9.4,9.568,2.015,1.847-3.861,3.861-1.847-2.015-9.568-9.4-1.847-2.015,3.693-3.693-3.693,3.693,3.693-3.693ZM17.771,78.536l1.847-2.014,9.568-9.4,1.847-1.847,3.861,3.693-2.015,1.846-9.4,9.568-2.015,1.847-3.693-3.693,3.693,3.693-3.693-3.693ZM50,66.114c-2.911,0-5.597-.726-8.057-2.182-2.463-1.453-4.422-3.412-5.875-5.875-1.456-2.573-2.182-5.259-2.182-8.058s.727-5.482,2.182-8.058c1.453-2.46,3.413-4.419,5.875-5.875,2.46-1.453,5.146-2.182,8.057-2.182s5.595.729,8.058,2.182c2.459,1.456,4.418,3.415,5.875,5.875,1.453,2.576,2.182,5.262,2.182,8.058s-.729,5.484-2.182,8.058c-1.457,2.463-3.416,4.422-5.875,5.875-2.463,1.456-5.149,2.182-8.058,2.182ZM50,39.257c-4.029.113-7.108,1.904-9.232,5.372-2.014,3.583-2.014,7.164,0,10.743,2.125,3.471,5.204,5.262,9.232,5.372,4.029-.11,7.105-1.901,9.232-5.372,2.016-3.579,2.016-7.16,0-10.743-2.126-3.467-5.203-5.259-9.232-5.372ZM47.315,24.485V7.027h5.372v20.144h-5.372v-2.686,2.686-2.686ZM47.315,92.973v-18.801h5.372v18.801h-5.372,5.372-5.372ZM66.115,30.024l10.408-10.407,2.014-1.847,3.693,3.693-1.848,2.015-10.406,10.407-1.848,1.847-3.859-3.693,1.846-2.014-1.846,2.014,1.846-2.014ZM69.976,66.114l10.406,10.408,1.848,2.014-3.693,3.693-2.014-1.847-10.408-10.407-1.846-1.847,3.859-3.86,1.848,1.846-1.848-1.846,1.848,1.846ZM90.287,47.314h2.686v5.372h-20.143v-5.372h2.686-2.686,17.457Z"/>
</svg>