<?xml version="1.0" encoding="UTF-8"?>
<svg id="Vrstva_1" xmlns="http://www.w3.org/2000/svg" version="1.1" viewBox="0 0 100 100">
  <!-- Generator: Adobe Illustrator 30.3.0, SVG Export Plug-In . SVG Version: 2.1.3 Build 182)  -->
  <path d="M18.8,46.9h3.1v6.3H0v-6.3,6.3-6.3h18.8,0ZM16.8,12.5l2.3,2.1,10.9,11.1,2.3,2.1-4.5,4.5-2.1-2.3-11.1-10.9-2.1-2.3,4.3-4.3-4.3,4.3s4.3-4.3,4.3-4.3ZM12.5,83.2l2.1-2.3,11.1-10.9,2.1-2.1,4.5,4.3-2.3,2.1-10.9,11.1-2.3,2.1-4.3-4.3,4.3,4.3s-4.3-4.3-4.3-4.3ZM50,68.7c-3.4,0-6.5-.8-9.4-2.5-2.9-1.7-5.1-4-6.8-6.8-1.7-3-2.5-6.1-2.5-9.4s.8-6.4,2.5-9.4c1.7-2.9,4-5.1,6.8-6.8,2.9-1.7,6-2.5,9.4-2.5s6.5.8,9.4,2.5c2.9,1.7,5.1,4,6.8,6.8,1.7,3,2.5,6.1,2.5,9.4s-.8,6.4-2.5,9.4c-1.7,2.9-4,5.1-6.8,6.8-2.9,1.7-6,2.5-9.4,2.5ZM46.9,20.3V0h6.3v23.4h-6.3v-3.1,3.1s0-3.1,0-3.1ZM46.9,100v-21.9h6.3v21.9h-6.3,6.3-6.3ZM68.8,26.8l12.1-12.1,2.3-2.1,4.3,4.3-2.2,2.3-12.1,12.1-2.2,2.1-4.5-4.3,2.1-2.3-2.1,2.3,2.1-2.3h0ZM73.2,68.7l12.1,12.1,2.2,2.3-4.3,4.3-2.3-2.1-12.1-12.1-2.1-2.1,4.5-4.5,2.2,2.1-2.2-2.1,2.2,2.1ZM96.9,46.9h3.1v6.3h-23.4v-6.3h3.1-3.1,20.3Z"/>
</svg>