<svg xmlns="http://www.w3.org/2000/svg" version="1.1" id="Vrstva_2" viewBox="0 0 100 100" width="100" height="100"><metadata><rdf:RDF xmlns:rdf="http://www.w3.org/1999/02/22-rdf-syntax-ns#" xmlns:dc="http://purl.org/dc/elements/1.1/"><rdf:Description><dc:creator>RealFaviconGenerator</dc:creator><dc:source>https://realfavicongenerator.net</dc:source></rdf:Description></rdf:RDF></metadata><defs>
    <style>
      .st0 {
        fill: #fff;
        stroke: #fff;
        stroke-miterlimit: 10;
        stroke-width: 1.5px;
      }

      .st1 {
        fill: #ff2000;
      }
    </style>
  </defs><rect class="st1" x="0" width="100" height="100"></rect><g>
    <path class="st0" d="M52.9,21.4h-3.1v56.9h3.1V21.4ZM16.2,78.6h4.1l29.6-28.6-29.6-28.6h-4.1l29.6,28.6s-29.6,28.6-29.6,28.6Z"></path>
    <path class="st0" d="M58.2,78.6h3.1V21.4h-3.1v56.9h0v.2ZM65.3,50l29.6-28.6h-4.1l-29.6,28.6,29.6,28.6h4.1l-29.6-28.6Z"></path>
    <polygon class="st0" points="38.5 49.9 9.3 21.7 5.1 21.7 34.5 49.9 5.1 78.3 9.3 78.3 38.5 49.9 38.5 49.9"></polygon>
  </g></svg>